<?xml version="1.0" encoding="UTF-8" standalone="no"?>
<svg
   width="32"
   height="32"
   viewBox="0 0 32 32"
   version="1.1"
   id="svg6"
   sodipodi:docname="github-octo-white.svg"
   inkscape:version="1.2 (dc2aedaf03, 2022-05-15)"
   xmlns:inkscape="http://www.inkscape.org/namespaces/inkscape"
   xmlns:sodipodi="http://sodipodi.sourceforge.net/DTD/sodipodi-0.dtd"
   xmlns="http://www.w3.org/2000/svg"
   xmlns:svg="http://www.w3.org/2000/svg">
  <defs
     id="defs10" />
  <sodipodi:namedview
     id="namedview8"
     pagecolor="#ffffff"
     bordercolor="#000000"
     borderopacity="0.25"
     inkscape:showpageshadow="2"
     inkscape:pageopacity="0.0"
     inkscape:pagecheckerboard="0"
     inkscape:deskcolor="#d1d1d1"
     showgrid="false"
     inkscape:zoom="16.40625"
     inkscape:cx="16"
     inkscape:cy="16.030476"
     inkscape:window-width="1366"
     inkscape:window-height="705"
     inkscape:window-x="-8"
     inkscape:window-y="-8"
     inkscape:window-maximized="1"
     inkscape:current-layer="svg6" />
  <circle
     fill="#FFF"
     cx="16"
     cy="16"
     r="14"
     id="circle2"
     style="fill:#4d4d4d"
     inkscape:label="circle2" />
  <path
     fill="#808080"
     d="M 16,2 C 8.268,2 2,8.269 2,16 2,23.73 8.269,30 16,30 23.732,30 30,23.73 30,16 30,8.269 23.732,2 16,2 Z m -0.686,26.19 a 10.573,10.573 0 0 1 -0.651,-0.055 v -5.216 c 0,-0.689 0.345,-1.195 0.345,-1.195 0,0 0.308,0.506 0.308,1.195 -0.002,0.427 -0.002,3.2 -0.002,5.271 z m 1.634,-0.02 c -0.216,0.019 -0.435,0.027 -0.653,0.032 v -5.499 c 0,-0.69 0.344,-1.196 0.344,-1.196 0,0 0.31,0.507 0.31,1.196 z m 1.63,-0.234 c -0.214,0.048 -0.434,0.089 -0.65,0.124 v -5.138 c 0,-0.683 0.345,-1.19 0.345,-1.19 0,0 0.308,0.508 0.308,1.196 v 5.017 z m 1.199,-0.324 v -5.524 c 0,-1.187 -0.71,-2.21 -1.73,-2.663 h 1.57 a 4.701,4.701 0 0 0 3.485,-1.552 c 1.713,0.279 3.502,0.643 4.41,1.039 l 0.217,-0.494 c -0.903,-0.39 -2.582,-0.745 -4.23,-1.025 0.027,-0.039 0.055,-0.076 0.08,-0.115 1.58,0.129 3.157,0.324 4.014,0.609 l 0.17,-0.513 c -0.859,-0.285 -2.369,-0.48 -3.902,-0.615 a 4.655,4.655 0 0 0 0.493,-2.069 v -1.44 c 0,-1.29 -0.515,-2.46 -1.35,-3.312 v -3.4 l -2.816,2.01 A 4.518,4.518 0 0 0 19.612,8.51 h -6.319 c -0.189,0 -0.383,0.014 -0.568,0.037 L 9.91,6.527 v 3.399 a 4.727,4.727 0 0 0 -1.35,3.313 v 1.44 c 0,0.711 0.17,1.391 0.455,1.992 -1.811,0.132 -3.756,0.347 -4.78,0.688 l 0.169,0.513 c 1.016,-0.341 3.049,-0.551 4.895,-0.677 0.011,0.015 0.014,0.03 0.023,0.05 -1.887,0.294 -4.002,0.702 -5.06,1.16 l 0.216,0.492 c 1.056,-0.456 3.296,-0.87 5.224,-1.166 0.87,1.021 2.147,1.682 3.59,1.682 h 1.896 a 2.912,2.912 0 0 0 -1.731,2.663 v 0.019 h -0.85 c -1.375,0 -2.355,-2.371 -4.97,-2.371 2.142,0.942 2.612,3.569 4.535,3.569 h 1.283 v 4.646 C 7.94,26.775 3.79,21.874 3.79,16 3.79,9.256 9.256,3.79 16,3.79 c 6.745,0 12.21,5.467 12.21,12.21 0,5.425 -3.536,10.02 -8.431,11.609 z"
     id="path4"
     style="display:inline;fill:#ffffff" />
</svg>
