<?xml version="1.0" encoding="utf-8"?>
<!-- Generator: Adobe Illustrator 14.0.0, SVG Export Plug-In . SVG Version: 6.00 Build 43363)  -->
<!DOCTYPE svg PUBLIC "-//W3C//DTD SVG 1.1//EN" "http://www.w3.org/Graphics/SVG/1.1/DTD/svg11.dtd">
<svg version="1.1" id="Layer_1" xmlns="http://www.w3.org/2000/svg" xmlns:xlink="http://www.w3.org/1999/xlink" x="0px" y="0px"
	 width="64px" height="64px" viewBox="0 0 64 64" enable-background="new 0 0 64 64" xml:space="preserve">
<path fill-rule="evenodd" clip-rule="evenodd" fill="#FFFFFF" d="M31.998,0.79C14.329,0.79,0,15.118,0,32.792
	C0,46.93,9.168,58.923,21.885,63.155c1.6,0.293,2.184-0.694,2.184-1.543c0-0.76-0.028-2.771-0.043-5.442
	c-8.902,1.934-10.78-4.289-10.78-4.289c-1.455-3.697-3.553-4.682-3.553-4.682c-2.906-1.985,0.22-1.944,0.22-1.944
	c3.211,0.226,4.901,3.297,4.901,3.297c2.854,4.891,7.489,3.479,9.313,2.659c0.291-2.068,1.117-3.478,2.031-4.278
	c-7.105-0.808-14.576-3.553-14.576-15.815c0-3.493,1.247-6.35,3.294-8.587c-0.329-0.81-1.427-4.063,0.313-8.468
	c0,0,2.687-0.861,8.8,3.281c2.552-0.71,5.29-1.067,8.011-1.078c2.717,0.011,5.455,0.368,8.012,1.078
	c6.109-4.142,8.791-3.281,8.791-3.281c1.745,4.405,0.648,7.658,0.318,8.468c2.051,2.237,3.288,5.094,3.288,8.587
	c0,12.293-7.481,14.999-14.61,15.791c1.15,0.988,2.173,2.94,2.173,5.926c0,4.278-0.04,7.729-0.04,8.778
	c0,0.856,0.578,1.852,2.202,1.539C54.84,58.911,64,46.926,64,32.792C64,15.118,49.672,0.79,31.998,0.79z"/>
</svg>
